<svg width="26" height="25" viewBox="0 0 26 25" fill="none" xmlns="http://www.w3.org/2000/svg">
<path d="M19.1251 6.4585C19.1251 5.95798 18.7333 5.55225 18.2501 5.55225C17.7668 5.55225 17.3751 5.95798 17.3751 6.4585V7.96892H15.9167C15.4335 7.96892 15.0417 8.37467 15.0417 8.87517C15.0417 9.37569 15.4335 9.78142 15.9167 9.78142H17.3751V11.2919C17.3751 11.7924 17.7668 12.1981 18.2501 12.1981C18.7333 12.1981 19.1251 11.7924 19.1251 11.2919V9.78142H20.5834C21.0666 9.78142 21.4584 9.37569 21.4584 8.87517C21.4584 8.37467 21.0666 7.96892 20.5834 7.96892H19.1251V6.4585Z" fill="#EDED00"/>
<path fill-rule="evenodd" clip-rule="evenodd" d="M25.5417 9.25874C25.5417 5.24056 23.8122 2.24099 21.1211 1.1496C18.6294 0.139114 15.6388 0.895144 13 3.45356C10.3612 0.895144 7.37063 0.139114 4.87899 1.14961C2.18786 2.241 0.458374 5.24059 0.458374 9.25879C0.458374 11.818 1.77719 14.3364 3.41855 16.5045C5.07678 18.6949 7.16287 20.6563 8.90404 22.1197L9.06052 22.2513C10.4612 23.4303 11.4724 24.2814 13 24.2814C14.5277 24.2814 15.5389 23.4303 16.9395 22.2514L17.0961 22.1197C18.8372 20.6563 20.9233 18.6949 22.5815 16.5045C24.2229 14.3364 25.5417 11.818 25.5417 9.25874ZM13.6391 5.35449C16.1029 2.62538 18.6573 2.0969 20.483 2.83732C22.3127 3.57938 23.7917 5.74903 23.7917 9.25874C23.7917 11.2059 22.7659 13.3235 21.2044 15.3862C19.6598 17.4266 17.6849 19.2907 15.9934 20.7124C14.3687 22.0778 13.8434 22.4689 13 22.4689C12.1567 22.4689 11.6314 22.0778 10.0067 20.7123C8.31523 19.2907 6.34031 17.4264 4.7957 15.3862C3.23424 13.3235 2.20837 11.2058 2.20837 9.25879C2.20837 5.74906 3.68731 3.57938 5.51706 2.83733C7.34278 2.0969 9.89716 2.62538 12.3609 5.35449C12.5264 5.53777 12.7577 5.64179 13 5.64179C13.2424 5.64179 13.4737 5.53777 13.6391 5.35449Z" fill="#EDED00"/>
</svg>
