<svg width="35" height="26" viewBox="0 0 35 26" fill="none" xmlns="http://www.w3.org/2000/svg">
<path d="M33.1042 11.6955V7.76188C33.1042 5.58172 31.552 3.80797 29.6438 3.80797C29.2277 3.80797 28.8284 3.89242 28.4584 4.04703C28.3475 1.97945 26.8413 0.335938 25.0049 0.335938C23.0967 0.335938 21.5442 2.11039 21.5442 4.29149V11.696H13.4554V4.29149C13.4554 2.11039 11.903 0.335938 9.99469 0.335938C8.15835 0.335938 6.65212 1.97937 6.54124 4.04703C6.17128 3.89242 5.77199 3.80797 5.35582 3.80797C3.44777 3.80797 1.89547 5.58164 1.89547 7.76188V11.6961H0V14.3048H1.89554V18.2373C1.89554 20.4184 3.44777 22.1929 5.35589 22.1929C5.77206 22.1929 6.17142 22.1084 6.54138 21.9538C6.6526 24.0209 8.15869 25.6641 9.99476 25.6641C11.9031 25.6641 13.4555 23.8896 13.4555 21.7085V14.3048H21.5443V21.7085C21.5443 23.8896 23.0967 25.6641 25.005 25.6641C26.8411 25.6641 28.3471 24.0209 28.4583 21.9538C28.8283 22.1084 29.2276 22.1929 29.6438 22.1929C31.5519 22.1929 33.1042 20.4184 33.1042 18.2373V14.3043L34.9995 14.3048L35 11.6961L33.1042 11.6955ZM6.53399 18.2373C6.53399 18.9799 6.00551 19.5842 5.35589 19.5842C4.70647 19.5842 4.17812 18.9801 4.17812 18.2373V7.76188C4.17812 7.02016 4.70641 6.41664 5.35589 6.41664C6.00551 6.41664 6.53399 7.02 6.53399 7.76188V18.2373ZM11.173 21.7084C11.173 22.4511 10.6445 23.0553 9.99482 23.0553C9.34521 23.0553 8.81672 22.4512 8.81672 21.7084V18.2373V7.76188V4.29156C8.81672 3.54891 9.34521 2.94469 9.99482 2.94469C10.6445 2.94469 11.173 3.54883 11.173 4.29156V21.7084ZM26.1831 7.76188V18.2373V21.7084C26.1831 22.4511 25.6547 23.0553 25.005 23.0553C24.3554 23.0553 23.8269 22.4512 23.8269 21.7084V4.29156C23.8269 3.54891 24.3554 2.94469 25.005 2.94469C25.6547 2.94469 26.1831 3.54883 26.1831 4.29156V7.76188ZM30.8216 18.2373C30.8216 18.9799 30.2933 19.5841 29.6438 19.5841C28.9942 19.5841 28.4657 18.98 28.4657 18.2373V7.76188C28.4657 7.02016 28.9942 6.41664 29.6438 6.41664C30.2933 6.41664 30.8216 7.02 30.8216 7.76188V18.2373Z" fill="#EDED00"/>
</svg>
