<svg width="22" height="22" viewBox="0 0 22 22" fill="none" xmlns="http://www.w3.org/2000/svg">
<path d="M2.74996 18.3333C2.74996 19.0627 3.03969 19.7621 3.55541 20.2779C4.07114 20.7936 4.77061 21.0833 5.49996 21.0833H16.5C17.2293 21.0833 17.9288 20.7936 18.4445 20.2779C18.9602 19.7621 19.25 19.0627 19.25 18.3333V7.33332C19.2476 6.65462 18.9927 6.0011 18.535 5.49999C18.8934 5.10704 19.1296 4.6182 19.2148 4.09318C19.3 3.56817 19.2304 3.02971 19.0146 2.5436C18.7987 2.05748 18.446 1.64475 17.9994 1.35583C17.5529 1.0669 17.0318 0.914299 16.5 0.916653H5.49996C4.96809 0.914299 4.44704 1.0669 4.00048 1.35583C3.55392 1.64475 3.20117 2.05748 2.98534 2.5436C2.7695 3.02971 2.69992 3.56817 2.78509 4.09318C2.87027 4.6182 3.10651 5.10704 3.46496 5.49999C3.00722 6.0011 2.75234 6.65462 2.74996 7.33332V18.3333ZM5.49996 2.74999H16.5C16.7431 2.74999 16.9762 2.84656 17.1481 3.01847C17.32 3.19038 17.4166 3.42354 17.4166 3.66665C17.4166 3.90977 17.32 4.14293 17.1481 4.31483C16.9762 4.48674 16.7431 4.58332 16.5 4.58332H5.49996C5.25684 4.58332 5.02369 4.48674 4.85178 4.31483C4.67987 4.14293 4.58329 3.90977 4.58329 3.66665C4.58329 3.42354 4.67987 3.19038 4.85178 3.01847C5.02369 2.84656 5.25684 2.74999 5.49996 2.74999ZM4.58329 7.33332C4.58329 7.0902 4.67987 6.85705 4.85178 6.68514C5.02369 6.51323 5.25684 6.41665 5.49996 6.41665H16.5C16.7431 6.41665 16.9762 6.51323 17.1481 6.68514C17.32 6.85705 17.4166 7.0902 17.4166 7.33332V18.3333C17.4166 18.5764 17.32 18.8096 17.1481 18.9815C16.9762 19.1534 16.7431 19.25 16.5 19.25H5.49996C5.25684 19.25 5.02369 19.1534 4.85178 18.9815C4.67987 18.8096 4.58329 18.5764 4.58329 18.3333V7.33332ZM8.31962 13.1844C8.25023 13.0169 8.23209 12.8325 8.2675 12.6546C8.3029 12.4768 8.39027 12.3134 8.51854 12.1852L11.2685 9.43524C11.4414 9.26826 11.673 9.17586 11.9133 9.17795C12.1537 9.18004 12.3836 9.27644 12.5535 9.4464C12.7235 9.61636 12.8199 9.84627 12.822 10.0866C12.8241 10.327 12.7317 10.5585 12.5647 10.7314L11.3795 11.9167H12.8333C13.0146 11.9167 13.1918 11.9705 13.3425 12.0712C13.4932 12.1719 13.6106 12.3151 13.68 12.4826C13.7494 12.65 13.7675 12.8343 13.7322 13.0121C13.6968 13.1899 13.6095 13.3532 13.4814 13.4814L10.7314 16.2314C10.5585 16.3984 10.3269 16.4908 10.0866 16.4887C9.84624 16.4866 9.61633 16.3902 9.44637 16.2202C9.27642 16.0503 9.18001 15.8204 9.17792 15.58C9.17584 15.3397 9.26823 15.1081 9.43521 14.9352L10.6205 13.75H9.16662C8.98534 13.75 8.80811 13.6963 8.65735 13.5956C8.50659 13.495 8.38906 13.3519 8.31962 13.1844Z" fill="#EDED00"/>
</svg>
